<svg width="121" height="132" viewBox="0 0 121 132" fill="none" xmlns="http://www.w3.org/2000/svg">
<path d="M120.513 65.8391C120.423 102.611 90.1618 132.387 53.2751 131.401V119.652C53.8123 119.652 54.3495 119.652 54.9762 119.652C86.0434 119.652 110.933 93.3731 108.695 61.8031C106.815 34.8968 84.8795 13.1924 57.9307 11.7574C38.413 10.7709 20.9545 20.0984 10.6584 34.8071C8.86782 37.3184 5.55518 38.1256 2.86926 36.6009C0.00427428 34.8968 -0.891034 31.0403 0.989113 28.26C13.0758 10.8606 33.2202 -0.350387 55.961 0.00836319C90.9676 0.546489 120.513 30.7712 120.513 65.8391Z" fill="#5B3AAD"/>
<path d="M77.087 57.9478C73.7744 67.9928 64.3737 75.3472 53.1823 75.3472C42.0805 75.3472 32.5902 68.0825 29.3671 58.0374C19.2502 65.3918 12.6249 77.41 12.6249 90.8631C12.6249 113.285 30.7996 131.492 53.1823 131.492C75.565 131.492 93.7398 113.285 93.7398 90.8631C93.7398 77.3203 87.204 65.3918 77.087 57.9478Z" fill="#8649E7"/>
<path d="M53.1799 31.4902C42.4362 31.4902 33.7517 40.1899 33.7517 50.9524C33.7517 61.715 42.4362 70.4147 53.1799 70.4147C63.9236 70.4147 72.6081 61.715 72.6081 50.9524C72.6081 40.1899 63.9236 31.4902 53.1799 31.4902ZM53.1799 61.2665C47.4499 61.2665 42.8839 56.6028 42.8839 50.9524C42.8839 45.2124 47.5395 40.6384 53.1799 40.6384C58.9099 40.6384 63.4759 45.3021 63.4759 50.9524C63.5655 56.6028 58.9099 61.2665 53.1799 61.2665Z" fill="#FFA1D0"/>
</svg>
