<svg width="18" height="18" viewBox="0 0 18 18" fill="none" xmlns="http://www.w3.org/2000/svg">
<path d="M9 4.90915C9.45187 4.90915 9.81819 5.27547 9.81819 5.72734V8.18187H12.2727C12.7246 8.18187 13.0909 8.54818 13.0909 9.00005C13.0909 9.45192 12.7246 9.81823 12.2727 9.81823H9.81819V12.2728C9.81819 12.7247 9.45187 13.091 9 13.091C8.54813 13.091 8.18182 12.7247 8.18182 12.2728V9.81823H5.72728C5.27541 9.81823 4.9091 9.45192 4.9091 9.00005C4.9091 8.54818 5.27541 8.18187 5.72728 8.18187H8.18182V5.72734C8.18182 5.27547 8.54813 4.90915 9 4.90915Z" fill="#7A7A7A"/>
<path fill-rule="evenodd" clip-rule="evenodd" d="M0 9C0 4.02944 4.02944 0 9 0C13.9706 0 18 4.02944 18 9C18 13.9706 13.9706 18 9 18C4.02944 18 0 13.9706 0 9ZM9 1.63636C4.93318 1.63636 1.63636 4.93318 1.63636 9C1.63636 13.0668 4.93318 16.3636 9 16.3636C13.0668 16.3636 16.3636 13.0668 16.3636 9C16.3636 4.93318 13.0668 1.63636 9 1.63636Z" fill="#7A7A7A"/>
</svg>
