<svg width="512" height="512" viewBox="0 0 512 512" fill="none" xmlns="http://www.w3.org/2000/svg">
<rect width="512" height="512"/>
<path d="M128 448L416 64L224 192L128 448Z" fill="#008FB8"/>
<path d="M128 448L224 192V320L128 448Z" fill="#00BBF0"/>
<path d="M96 160L416 64L224 192L384 320L128 448L224 320L96 160Z" fill="#25424C"/>
<path d="M96 160L416 64L224 192L384 320L128 448L224 320L96 160Z" fill="#008FB8"/>
<path d="M416 64L96 160L384 320L224 192L416 64Z" fill="#00BBF0"/>
<path d="M224 192L96 160L384 320L224 192Z" fill="#00BBF0"/>
<path d="M384 320L96 160L224 320H384Z" fill="#008FB8"/>
</svg>
