<svg width="19" height="19" viewBox="0 0 19 19" fill="none" xmlns="http://www.w3.org/2000/svg">
<path fill-rule="evenodd" clip-rule="evenodd" d="M0.582981 5.90592C0.811821 5.57781 1.1396 5.33148 1.51843 5.20294L1.52677 5.20011L16.7329 0.238924C16.9632 0.16391 17.2102 0.153973 17.4457 0.210433C17.6787 0.266278 17.8919 0.384816 18.0623 0.553145C18.064 0.554892 18.0658 0.556654 18.0676 0.558423L18.0694 0.56028C18.2399 0.731298 18.3598 0.946027 18.4161 1.18084C18.4726 1.41638 18.4628 1.66296 18.3877 1.89326L13.4306 17.115C13.302 17.4939 13.0556 17.8216 12.7275 18.0505C12.3994 18.2793 12.0067 18.3972 11.6068 18.3869C11.2069 18.3767 10.8208 18.2388 10.5048 17.9934C10.1889 17.748 9.9597 17.408 9.85078 17.0231C9.84808 17.0136 9.84557 17.004 9.84326 16.9944L8.25051 10.376L1.63964 8.79032C1.62982 8.78797 1.62006 8.78542 1.61035 8.78267C1.22543 8.67374 0.885437 8.44457 0.640058 8.12863C0.394679 7.81269 0.256779 7.42655 0.246509 7.02665C0.23624 6.62674 0.354141 6.23404 0.582981 5.90592ZM15.7535 1.81188L1.99735 6.62445C1.92287 6.65044 1.85846 6.69926 1.81331 6.764C1.76754 6.82962 1.74396 6.90816 1.74601 6.98814C1.74807 7.06812 1.77565 7.14535 1.82472 7.20854C1.87153 7.2688 1.93555 7.31329 2.00816 7.33617L8.7626 8.80275L15.7535 1.81188ZM9.79697 9.8897L16.8145 2.87217L12.0089 16.6362C11.9829 16.7107 11.9341 16.775 11.8694 16.8201C11.8038 16.8659 11.7253 16.8895 11.6453 16.8874C11.5653 16.8854 11.4881 16.8578 11.4249 16.8087C11.3646 16.7619 11.3201 16.6978 11.2972 16.6251L9.79697 9.8897Z" fill="#005FFF"/>
</svg>
